<?xml version="1.0" encoding="UTF-8"?>
<svg id="Layer_2" data-name="Layer 2" xmlns="http://www.w3.org/2000/svg" viewBox="0 0 595.7 118.72">
  <defs>
    <style>
      .cls-1 {
        fill: #18345e;
      }

      .cls-2 {
        isolation: isolate;
      }
    </style>
  </defs>
  <g id="Layer_1-2" data-name="Layer 1">
    <g id="logo-text">
      <g class="cls-2">
        <g class="cls-2">
          <g>
            <path class="cls-1" d="M30.24,91.28c-12.23,0-22.31-4.25-30.24-12.74l12.74-11.62c5.32,5.97,11.01,8.96,17.08,8.96,3.27,0,5.76-.72,7.49-2.17,1.73-1.45,2.59-3.24,2.59-5.39,0-1.31-.3-2.43-.91-3.36-.61-.93-1.87-1.82-3.78-2.66-1.91-.84-4.78-1.68-8.61-2.52-6.53-1.59-11.39-3.55-14.56-5.88-3.17-2.33-5.27-4.95-6.3-7.84-1.03-2.89-1.54-5.88-1.54-8.96,0-6.35,2.4-11.64,7.21-15.89,4.81-4.25,11.46-6.37,19.95-6.37,5.88,0,10.92.89,15.12,2.66,4.2,1.77,8.17,5.09,11.9,9.94l-13.72,10.5c-1.77-2.8-3.76-4.81-5.95-6.02-2.19-1.21-4.5-1.82-6.93-1.82-2.61,0-4.78.51-6.51,1.54-1.73,1.03-2.59,2.66-2.59,4.9,0,1.21.56,2.4,1.68,3.57,1.12,1.17,3.83,2.31,8.12,3.43,7.09,1.77,12.51,3.85,16.24,6.23,3.73,2.38,6.3,5.06,7.7,8.05,1.4,2.99,2.1,6.3,2.1,9.94,0,4.48-1.24,8.49-3.71,12.04-2.47,3.55-5.83,6.35-10.08,8.4-4.25,2.05-9.08,3.08-14.49,3.08Z"/>
            <path class="cls-1" d="M71.68,118.72c-1.87,0-3.97-.09-6.3-.28-2.33-.19-4.43-.56-6.3-1.12l2.8-18.06c2.61.65,5.46.98,8.54.98,3.64,0,6.63-1.05,8.96-3.15,2.33-2.1,4.01-4.74,5.04-7.91l.98-3.08L56.56,16.66h22.82l14.14,41.58c1.31,3.73,2.33,7.61,3.08,11.62.75-4.01,1.77-7.89,3.08-11.62l14.14-41.58h22.4l-32.2,77.42c-3.08,7.37-7.09,13.32-12.04,17.85-4.95,4.53-11.71,6.79-20.3,6.79Z"/>
            <path class="cls-1" d="M159.74,91.28c-12.23,0-22.31-4.25-30.24-12.74l12.74-11.62c5.32,5.97,11.01,8.96,17.08,8.96,3.27,0,5.76-.72,7.49-2.17,1.73-1.45,2.59-3.24,2.59-5.39,0-1.31-.3-2.43-.91-3.36-.61-.93-1.87-1.82-3.78-2.66-1.91-.84-4.78-1.68-8.61-2.52-6.53-1.59-11.39-3.55-14.56-5.88-3.17-2.33-5.27-4.95-6.3-7.84-1.03-2.89-1.54-5.88-1.54-8.96,0-6.35,2.4-11.64,7.21-15.89,4.81-4.25,11.46-6.37,19.95-6.37,5.88,0,10.92.89,15.12,2.66,4.2,1.77,8.17,5.09,11.9,9.94l-13.72,10.5c-1.77-2.8-3.76-4.81-5.95-6.02-2.19-1.21-4.5-1.82-6.93-1.82-2.61,0-4.78.51-6.51,1.54-1.73,1.03-2.59,2.66-2.59,4.9,0,1.21.56,2.4,1.68,3.57,1.12,1.17,3.83,2.31,8.12,3.43,7.09,1.77,12.51,3.85,16.24,6.23,3.73,2.38,6.3,5.06,7.7,8.05,1.4,2.99,2.1,6.3,2.1,9.94,0,4.48-1.24,8.49-3.71,12.04-2.47,3.55-5.83,6.35-10.08,8.4-4.25,2.05-9.08,3.08-14.49,3.08Z"/>
            <path class="cls-1" d="M221.76,89.46c-7.19,0-12.69-1.77-16.52-5.32-3.83-3.55-5.74-9.29-5.74-17.22v-34.16h-10.22v-16.1h10.22V1.96l18.9-1.96v16.66h15.4v16.1h-15.4v33.18c0,4.48,1.96,6.72,5.88,6.72h7.84v16.8h-10.36Z"/>
            <path class="cls-1" d="M273,91.28c-7.47,0-14.05-1.73-19.74-5.18-5.69-3.45-10.1-8.05-13.23-13.79-3.13-5.74-4.69-12.11-4.69-19.11s1.63-13.42,4.9-19.25c3.27-5.83,7.72-10.48,13.37-13.93,5.65-3.45,12.11-5.18,19.39-5.18s13.7,1.73,19.25,5.18c5.55,3.45,9.89,8.1,13.02,13.93,3.13,5.83,4.69,12.25,4.69,19.25,0,1.03-.05,2.1-.14,3.22-.09,1.12-.23,2.29-.42,3.5h-54.46c1.03,4.29,3.1,7.79,6.23,10.5,3.13,2.71,7.07,4.06,11.83,4.06,4.11,0,7.68-.93,10.71-2.8,3.03-1.87,5.39-4.2,7.07-7l14.7,11.06c-2.89,4.57-7.23,8.31-13.02,11.2-5.79,2.89-12.27,4.34-19.46,4.34ZM272.72,31.08c-4.48,0-8.31,1.35-11.48,4.06-3.17,2.71-5.27,6.25-6.3,10.64h35.98c-1.03-4.01-3.15-7.47-6.37-10.36-3.22-2.89-7.16-4.34-11.83-4.34Z"/>
            <path class="cls-1" d="M318.22,89.46V16.66h18.62v10.64c3.83-8.21,11.25-12.32,22.26-12.32,5.13,0,9.75,1.19,13.86,3.57,4.11,2.38,7.37,5.76,9.8,10.15,2.43-4.39,5.53-7.77,9.31-10.15,3.78-2.38,8.89-3.57,15.33-3.57,5.23,0,9.94,1.21,14.14,3.64,4.2,2.43,7.51,5.88,9.94,10.36,2.43,4.48,3.64,9.8,3.64,15.96v44.52h-18.9v-39.9c0-6.35-1.35-10.94-4.06-13.79-2.71-2.85-6.21-4.27-10.5-4.27s-7.96,1.26-10.71,3.78c-2.75,2.52-4.13,7.28-4.13,14.28v39.9h-18.9v-39.9c0-6.35-1.45-10.94-4.34-13.79-2.89-2.85-6.67-4.27-11.34-4.27-4.01,0-7.54,1.42-10.57,4.27-3.03,2.85-4.55,7.44-4.55,13.79v39.9h-18.9Z"/>
            <path class="cls-1" d="M478.8,91.28c-6.63,0-12.67-1.7-18.13-5.11s-9.8-7.98-13.02-13.72-4.83-12.11-4.83-19.11c0-5.23.93-10.15,2.8-14.77,1.87-4.62,4.43-8.68,7.7-12.18,3.27-3.5,7.07-6.25,11.41-8.26,4.34-2.01,9.03-3.01,14.07-3.01,6.35,0,11.29,1.19,14.84,3.57,3.55,2.38,6.3,5.53,8.26,9.45v-11.48h18.76v72.8h-18.34v-11.9c-1.96,4.11-4.74,7.42-8.33,9.94-3.59,2.52-8.66,3.78-15.19,3.78ZM481.88,74.2c4.2,0,7.82-.96,10.85-2.87,3.03-1.91,5.39-4.46,7.07-7.63,1.68-3.17,2.52-6.63,2.52-10.36s-.84-7.33-2.52-10.5c-1.68-3.17-4.04-5.74-7.07-7.7-3.03-1.96-6.65-2.94-10.85-2.94s-7.54.96-10.57,2.87c-3.03,1.91-5.39,4.46-7.07,7.63-1.68,3.17-2.52,6.67-2.52,10.5s.84,7.07,2.52,10.29c1.68,3.22,4.04,5.81,7.07,7.77,3.03,1.96,6.56,2.94,10.57,2.94Z"/>
            <path class="cls-1" d="M533.26,105.56v-16.1h62.44v16.1h-62.44Z"/>
          </g>
        </g>
      </g>
    </g>
  </g>
</svg>